<svg id="Layer_2" width="100" xmlns="http://www.w3.org/2000/svg" viewBox="0 0 413.25 115.63" style="overflow: visible;"><g id="Layer_2-2"><path fill="#174652" d="M94.96,1.23v59.49c0,7.12-1.3,13.29-10.35,13.42-4.5.06-10.57-1.11-13.87-1.8l10.79,14.85c1.91.16,3.88.24,5.51.24,17.11,0,23.87-8.2,23.87-27.62V1.23h-15.94Z"></path><path fill="#174652" d="M71.42,1.23h-19.27c-11.65,12.75-30.54,32.66-36.39,39.21V1.23H0v85.94h15.76v-31.11l9.62-9,28.79,40.1h19.17l-36.88-50.43L71.42,1.23Z"></path><path fill="#60c6c3" d="M155.43,35.05c-14.13-3.33-18.14-5.98-18.14-12.6s4.95-10.36,13.4-10.36c11.45,0,14.97,5.86,16.07,11.89h16.1c-1.19-11.99-9.95-23.97-31.72-23.97-19.72,0-30.19,10.13-30.19,24.19,0,11.63,6.14,19.51,28.2,24.75,15.39,3.63,19.52,7.24,19.52,14.71,0,6.84-4.56,11.52-15.54,11.52s-17.1-4.35-19.16-13.45h-16.1c1.94,14.65,12.56,25.63,34.06,25.63s33.08-10.68,33.08-25.57c0-11.61-5.03-20.89-29.58-26.74Z"></path><path fill="#60c6c3" d="M261.77,21.57c-10.47,0-16.09,4.74-19.68,10.18-2.29-5.54-7.66-10.18-16.7-10.18-9.51,0-14.73,4.72-17.83,9.74-.05-2.7-.38-6.61-.59-8.26h-14.63c.12,5.31.12,10.82.12,16.28v46.87h15.1v-35.17c0-11.24,3.88-16.9,12.01-16.9s10.13,5.94,10.13,13.02v39.04h14.98v-36.16c0-10.19,3.42-15.99,11.81-15.99s10.33,6.3,10.33,12.55v39.6h14.93v-41.45c0-16.65-9.23-23.17-19.98-23.17Z"></path><rect fill="#60c6c3" x="293.57" y="23.04" width="15.27" height="63.15"></rect><rect fill="#60c6c3" x="293.57" y="1.25" width="15.27" height="14.23"></rect><path fill="#60c6c3" d="M339.45,1.26h-15.27v21.79h-10.13v11.72h10.13v35.35c0,10.86,4.16,16.95,15.65,16.95,3.35,0,7.77-.07,10.98-1.19v-10.75c-1.45.27-3.34.31-4.49.31-5.38,0-6.85-2.3-6.85-7.54v-33.12h12.9v-11.72h-12.9V1.26Z"></path><path fill="#60c6c3" d="M391.85,21.57c-10.38,0-15.71,4.97-18.64,9.55V1.19h-15.27v85h15.27v-33.85c0-10.89,2.95-18.21,13.22-18.21,7.96,0,11.42,4.9,11.42,13.96v38.1h15.19v-40.45c0-17.69-9.97-24.18-21.19-24.18Z"></path><polygon fill="#174652" points="285.18 104.11 292.89 104.11 292.89 101.39 282.21 101.39 282.21 115.51 285.18 115.51 285.18 109.98 292 109.98 292 107.27 285.18 107.27 285.18 104.11"></polygon><path fill="#174652" d="M298.93,101.3l-6.09,14.21h3.04l1.32-3.22h6.11l1.32,3.22h3.12l-6.07-14.21h-2.75ZM298.27,109.65l2-4.79,1.98,4.79h-3.98Z"></path><polygon fill="#174652" points="317.26 107.5 313.44 101.39 310.24 101.39 310.24 115.51 313.15 115.51 313.15 106.16 317.18 112.27 317.26 112.27 321.33 106.1 321.33 115.51 324.3 115.51 324.3 101.39 321.1 101.39 317.26 107.5"></polygon><rect fill="#174652" x="328.13" y="101.39" width="2.99" height="14.11"></rect><polygon fill="#174652" points="337.9 101.39 334.94 101.39 334.94 115.51 345.02 115.51 345.02 112.79 337.9 112.79 337.9 101.39"></polygon><polygon fill="#174652" points="350.53 107.17 347.06 101.39 343.57 101.39 349.02 109.94 349.02 115.51 352 115.51 352 109.88 357.47 101.39 354.07 101.39 350.53 107.17"></polygon><polygon fill="#174652" points="368.92 101.39 365.95 101.39 365.95 115.51 376.03 115.51 376.03 112.79 368.92 112.79 368.92 101.39"></polygon><path fill="#174652" d="M383.52,101.3l-6.09,14.21h3.05l1.32-3.22h6.11l1.32,3.22h3.12l-6.07-14.21h-2.75ZM382.86,109.65l2-4.79,1.98,4.79h-3.98Z"></path><polygon fill="#174652" points="410.13 101.39 407.12 111.12 403.9 101.35 401.35 101.35 398.13 111.12 395.1 101.39 391.9 101.39 396.75 115.6 399.35 115.6 402.59 106.2 405.82 115.6 408.42 115.6 413.25 101.39 410.13 101.39"></polygon><rect fill="#60c6c3" x="0" y="112.4" width="266.75" height="3.23"></rect></g></svg>